<?xml version="1.0" encoding="UTF-8"?>
<svg xmlns="http://www.w3.org/2000/svg" xmlns:xlink="http://www.w3.org/1999/xlink" width="14px" height="16px" viewBox="0 0 14 16" version="1.1">
<g id="surface1">
<path style=" stroke:none;fill-rule:nonzero;fill:rgb(55.294118%,55.294118%,55.294118%);fill-opacity:1;" d="M 3.136719 14 L 0.230469 14 L 0.230469 4.65625 L 3.136719 4.65625 Z M 1.679688 3.378906 C 0.753906 3.378906 0 2.605469 0 1.683594 C 0 0.753906 0.75 0 1.679688 0 C 2.609375 0 3.363281 0.753906 3.363281 1.679688 C 3.363281 2.605469 2.609375 3.378906 1.679688 3.378906 Z M 13.996094 14 L 11.101562 14 L 11.101562 9.449219 C 11.101562 8.367188 11.078125 6.972656 9.59375 6.972656 C 8.082031 6.972656 7.847656 8.15625 7.847656 9.371094 L 7.847656 14 L 4.949219 14 L 4.949219 4.65625 L 7.734375 4.65625 L 7.734375 5.929688 L 7.777344 5.929688 C 8.164062 5.191406 9.109375 4.414062 10.523438 4.414062 C 13.460938 4.414062 14 6.351562 14 8.867188 L 14 14 Z M 13.996094 14 "/>
</g>
</svg>
