<?xml version="1.0" encoding="UTF-8"?>
<svg xmlns="http://www.w3.org/2000/svg" xmlns:xlink="http://www.w3.org/1999/xlink" width="18px" height="16px" viewBox="0 0 17 16" version="1.1">
<g id="surface1">
<path style=" stroke:none;fill-rule:nonzero;fill:rgb(80.000001%,80.000001%,80.784315%);fill-opacity:1;" d="M 9.566406 0.5625 C 9.40625 0.21875 9.066406 0 8.695312 0 C 8.324219 0 7.988281 0.21875 7.828125 0.5625 L 5.886719 4.695312 L 1.550781 5.359375 C 1.1875 5.414062 0.886719 5.679688 0.777344 6.039062 C 0.664062 6.398438 0.753906 6.792969 1.015625 7.058594 L 4.160156 10.28125 L 3.417969 14.835938 C 3.355469 15.210938 3.507812 15.589844 3.804688 15.8125 C 4.105469 16.035156 4.5 16.0625 4.828125 15.882812 L 8.699219 13.742188 L 12.570312 15.882812 C 12.898438 16.0625 13.292969 16.039062 13.59375 15.8125 C 13.890625 15.585938 14.042969 15.210938 13.980469 14.835938 L 13.234375 10.28125 L 16.382812 7.058594 C 16.640625 6.792969 16.734375 6.398438 16.621094 6.039062 C 16.503906 5.679688 16.207031 5.414062 15.84375 5.359375 L 11.507812 4.695312 Z M 9.566406 0.5625 "/>
</g>
</svg>
